#!OML:ASF F:\VICON\USERDATA\INSTALL\rory3\rory3.ASF
:FULLY-SPECIFIED
:DEGREES
1861
root 0.0351324 15.634 -4.36358 -10.4059 -3.50133 -716.722
lowerback 24.3636 0.707924 -2.98382
upperback 10.798 0.272394 0.904417
thorax -1.67168 0.00139419 2.60886
lowerneck -19.3776 -3.12717 -10.9114
upperneck 22.1357 -2.33932 5.27058
head 10.5142 -1.36239 3.36602
rclavicle 7.95139e-016 4.77083e-015
rhumerus -33.4722 26.6963 -86.9951
rradius 101.546
rwrist 29.48
rhand -47.9572 12.8183
rfingers 7.12502
rthumb -20.6273 -16.1057
lclavicle 7.95139e-016 4.77083e-015
lhumerus -34.4528 -23.9273 92.7378
lradius 97.773
lwrist -25.7035
lhand -46.4342 15.8897
lfingers 7.12502
lthumb -19.1633 44.9656
rfemur -85.0313 -12.3261 28.7762
rtibia 109.172
rfoot 14.1807 -11.0083
rtoes 10.9258
lfemur -95.0641 13.0745 -37.5827
ltibia 134.223
lfoot 2.33497 -0.126222
ltoes -3.92115
1862
root 0.0326172 15.6347 -4.35904 -10.2583 -3.43914 -716.584
lowerback 24.4719 0.706733 -3.07871
upperback 10.8217 0.248561 0.925475
thorax -1.6954 -0.013847 2.69222
lowerneck -19.1858 -3.09179 -10.8519
upperneck 22.3968 -2.29772 5.1243
head 10.5677 -1.36361 3.31419
rclavicle -1.17283e-014 -1.90833e-014
rhumerus -33.005 26.7482 -86.8552
rradius 100.856
rwrist 29.2496
rhand -47.7194 12.9319
rfingers 7.12502
rthumb -20.3988 -16.0167
lclavicle -1.17283e-014 -1.90833e-014
lhumerus -34.4344 -23.9499 92.7627
lradius 97.9211
lwrist -25.5714
lhand -46.6297 15.6736
lfingers 7.12502
lthumb -19.3513 44.7307
rfemur -84.0385 -12.484 28.5265
rtibia 107.324
rfoot 13.7136 -10.6284
rtoes 8.94227
lfemur -95.16 12.833 -37.6998
ltibia 134.185
lfoot 2.39548 -0.110682
ltoes -3.96613
1863
root 0.0298641 15.6394 -4.3567 -10.0762 -3.40749 -716.444
lowerback 24.5442 0.730778 -3.14589
upperback 10.8723 0.262483 0.905404
thorax -1.67465 -0.00946213 2.70561
lowerneck -19.1493 -3.06879 -10.6509
upperneck 22.722 -2.30446 4.99747
head 10.6762 -1.37194 3.23984
rclavicle -1.39149e-014 5.96354e-015
rhumerus -32.6209 26.7031 -86.7323
rradius 100.359
rwrist 28.7904
rhand -47.3854 13.1912
rfingers 7.12502
rthumb -20.0778 -15.7914
lclavicle -1.39149e-014 5.96354e-015
lhumerus -34.347 -24.0903 92.7103
lradius 98.0177
lwrist -25.4976
lhand -46.7127 15.39
lfingers 7.12502
lthumb -19.4311 44.4391
rfemur -83.0031 -12.6028 28.206
rtibia 105.41
rfoot 13.1951 -10.3589
rtoes 7.29577
lfemur -95.2698 12.6306 -37.8338
ltibia 134.137
lfoot 2.37044 -0.0527264
ltoes -4.14132
1864
root 0.0262883 15.6491 -4.3559 -9.95409 -3.46942 -716.343
lowerback 24.6142 0.774009 -3.15202
upperback 10.9531 0.313889 0.889129
thorax -1.62257 0.0141213 2.67868
lowerneck -19.0061 -3.04591 -10.5615
upperneck 22.942 -2.32317 5.00676
head 10.7299 -1.37757 3.23018
rclavicle 9.14409e-015 0
rhumerus -32.4062 26.6404 -86.5892
rradius 100.019
rwrist 28.3363
rhand -47.035 13.3052
rfingers 7.12502
rthumb -19.7409 -15.7124
lclavicle 9.14409e-015 0
lhumerus -34.1786 -24.2435 92.686
lradius 97.9838
lwrist -25.6205
lhand -46.7864 15.2953
lfingers 7.12502
lthumb -19.5019 44.3373
rfemur -81.8977 -12.5945 27.8707
rtibia 103.47
rfoot 12.6592 -10.3907
rtoes 5.94016
lfemur -95.2997 12.6355 -37.9125
ltibia 134.053
lfoot 2.2633 -0.0909178
ltoes -4.31606
1865
root 0.0233152 15.6609 -4.35612 -9.81598 -3.47476 -716.287
lowerback 24.7359 0.759011 -3.11028
upperback 11.007 0.300897 0.908345
thorax -1.6208 0.00764393 2.67922
lowerneck -18.7715 -3.00657 -10.631
upperneck 23.0479 -2.28937 5.0581
head 10.7227 -1.36669 3.26806
rclavicle -1.98785e-016 -6.75868e-015
rhumerus -32.0436 26.7293 -86.4158
rradius 99.4922
rwrist 27.9332
rhand -46.7748 13.0274
rfingers 7.12502
rthumb -19.4908 -16.0157
lclavicle -1.98785e-016 -6.75868e-015
lhumerus -34.161 -24.2918 92.7057
lradius 98.1233
lwrist -25.8198
lhand -46.8874 15.593
lfingers 7.12502
lthumb -19.599 44.625
rfemur -80.8094 -12.621 27.6064
rtibia 101.526
rfoot 12.1595 -10.756
rtoes 4.61129
lfemur -95.3532 12.552 -37.9302
ltibia 133.97
lfoot 2.15753 -0.105885
ltoes -4.34689
1866
root 0.0220298 15.6715 -4.35484 -9.58702 -3.41344 -716.251
lowerback 24.7945 0.70524 -3.00239
upperback 11.0649 0.255717 0.935656
thorax -1.58236 -0.0131778 2.65866
lowerneck -18.7255 -2.99103 -10.7443
upperneck 23.2597 -2.27196 5.17197
head 10.7932 -1.35996 3.33591
rclavicle -5.56597e-015 0
rhumerus -31.4064 26.7622 -86.1962
rradius 98.7352
rwrist 27.5724
rhand -46.4928 12.9683
rfingers 7.12502
rthumb -19.2196 -16.102
lclavicle -5.56597e-015 0
lhumerus -34.1706 -24.2745 92.6933
lradius 98.3667
lwrist -25.8828
lhand -46.8935 15.4098
lfingers 7.12502
lthumb -19.6049 44.4413
rfemur -79.8237 -12.6793 27.3638
rtibia 99.5866
rfoot 11.7829 -12.0781
rtoes 6.54006
lfemur -95.5267 12.2878 -37.95
ltibia 133.9
lfoot 2.12941 -0.0193223
ltoes -4.22957
1867
root 0.0238256 15.6788 -4.34805 -9.35687 -3.28563 -716.168
lowerback 24.7872 0.640722 -2.85661
upperback 11.1647 0.205543 0.905727
thorax -1.46624 -0.0349049 2.5554
lowerneck -18.8036 -3.02586 -10.8223
upperneck 23.4917 -2.35129 5.39385
head 10.9043 -1.37996 3.42419
rclavicle -6.16232e-015 7.95139e-015
rhumerus -30.8116 26.7321 -86.0724
rradius 98.0047
rwrist 27.1792
rhand -46.3156 12.9887
rfingers 7.12502
rthumb -19.0492 -16.0985
lclavicle -6.16232e-015 7.95139e-015
lhumerus -34.0618 -24.3835 92.6253
lradius 98.529
lwrist -25.8818
lhand -46.8838 15.1228
lfingers 7.12502
lthumb -19.5956 44.1552
rfemur -78.8327 -12.8284 27.0481
rtibia 97.6549
rfoot 11.2926 -13.6316
rtoes 10.024
lfemur -95.6721 11.883 -38.0254
ltibia 133.841
lfoot 2.15468 0.0584722
ltoes -4.33761
